<svg xmlns="http://www.w3.org/2000/svg" viewBox="0 0 64 64" role="img" aria-label="Nova SVT">
  <rect width="64" height="64" rx="16" fill="#0C1A13"/>
  <circle cx="32" cy="32" r="22" fill="none" stroke="#52B788" stroke-width="3"/>
  <circle cx="32" cy="32" r="22" fill="none" stroke="#C9A84C" stroke-width="1.4" stroke-dasharray="2 6" opacity=".6"/>
  <g transform="translate(15.2 15.9) scale(1.4)" fill="none" stroke="#52B788" stroke-width="2.2" stroke-linecap="round" stroke-linejoin="round">
    <path d="M6 18h8"/>
    <path d="M3 22h18"/>
    <path d="M14 22a7 7 0 1 0 0-14h-1"/>
    <path d="M9 14h2"/>
    <path d="M9 12a2 2 0 0 1-2-2V6h6v4a2 2 0 0 1-2 2Z"/>
    <path d="M12 6V3a1 1 0 0 0-1-1H9a1 1 0 0 0-1 1v3"/>
  </g>
</svg>
